<svg width="96" height="80" fill="none" xmlns="http://www.w3.org/2000/svg"><path fill-rule="evenodd" clip-rule="evenodd" d="M18.5 5a7.5 7.5 0 0 0-7.5 7.5v25.861c.314.372.57.819.742 1.341l1.013 3.055a.77.77 0 0 0 .488.488l3.055 1.013c3.603 1.194 3.603 6.29 0 7.484l-3.055 1.013a.77.77 0 0 0-.488.488l-1.013 3.055c-.173.523-.428.97-.742 1.34V67.5a7.5 7.5 0 0 0 7.5 7.5h55a7.491 7.491 0 0 0 6.146-3.2l-1.186-.393c-3.28-1.087-3.28-5.727 0-6.814l1.602-.53.531-1.603c.105-.316.243-.602.407-.857v-27.33a4.879 4.879 0 0 1-.078-.218l-1.392-4.2a2.184 2.184 0 0 0-1.386-1.385l-4.2-1.392c-3.925-1.301-3.925-6.855 0-8.156l4.2-1.392a2.184 2.184 0 0 0 1.386-1.386l1.392-4.2c.015-.045.03-.09.047-.133A7.5 7.5 0 0 0 73.5 5h-55zm13.434 40.14a2.5 2.5 0 0 0-3.497.842l-8.97 15.25C18.485 62.9 19.686 65 21.62 65h48.41a2.5 2.5 0 0 0 2.372-3.29l-9.832-29.497c-.65-1.949-3.242-2.326-4.42-.643l-13.28 18.97a2.5 2.5 0 0 1-3.39.676l-9.547-6.076zM28.5 30a7.5 7.5 0 1 0 0-15 7.5 7.5 0 0 0 0 15z" fill="#D9D9D9"/><path fill-rule="evenodd" clip-rule="evenodd" d="M82.378 28.912a5.184 5.184 0 0 0-3.29-3.29l-4.2-1.392c-1.184-.392-1.184-2.068 0-2.46l4.2-1.392a5.184 5.184 0 0 0 3.29-3.29l1.392-4.2c.392-1.184 2.068-1.184 2.46 0l1.392 4.2a5.184 5.184 0 0 0 3.29 3.29l4.2 1.392c1.184.392 1.184 2.068 0 2.46l-4.2 1.392a5.184 5.184 0 0 0-3.29 3.29l-1.392 4.2c-.392 1.184-2.068 1.184-2.46 0l-1.392-4.2zM6.093 52.3A3.77 3.77 0 0 0 3.7 49.907L.646 48.895c-.861-.286-.861-1.504 0-1.79L3.7 46.093A3.77 3.77 0 0 0 6.093 43.7l1.012-3.054c.286-.861 1.504-.861 1.79 0L9.907 43.7a3.77 3.77 0 0 0 2.393 2.393l3.054 1.012c.861.286.861 1.504 0 1.79L12.3 49.907A3.77 3.77 0 0 0 9.907 52.3l-1.012 3.054c-.286.861-1.504.861-1.79 0L6.093 52.3zM82.808 70.687a2.357 2.357 0 0 0-1.495-1.495l-1.91-.633c-.538-.178-.538-.94 0-1.118l1.91-.633a2.357 2.357 0 0 0 1.495-1.495l.633-1.91c.178-.538.94-.538 1.118 0l.633 1.91a2.357 2.357 0 0 0 1.495 1.495l1.91.633c.538.178.538.94 0 1.118l-1.91.633a2.357 2.357 0 0 0-1.495 1.495l-.633 1.91c-.178.538-.94.538-1.118 0l-.633-1.91z" fill="#B3B3B3"/></svg>