<?xml version="1.0" standalone="no"?>
    <svg xmlns="http://www.w3.org/2000/svg" viewBox="0 0 1440 320">
        <linearGradient id="linear-gradient">
            <stop offset="0%" stop-color="#00b8fa"/>
            <stop offset="100%" stop-color="#73daff"/>
        </linearGradient>
        
        <path fill="url(#linear-gradient)" fill-opacity="1" d="M0,192L24,208C48,224,96,256,144,224C192,192,240,96,288,90.7C336,85,384,171,432,186.7C480,203,528,149,576,138.7C624,128,672,160,720,165.3C768,171,816,149,864,160C912,171,960,213,1008,234.7C1056,256,1104,256,1152,256C1200,256,1248,256,1296,256C1344,256,1392,256,1416,256L1440,256L1440,320L1416,320C1392,320,1344,320,1296,320C1248,320,1200,320,1152,320C1104,320,1056,320,1008,320C960,320,912,320,864,320C816,320,768,320,720,320C672,320,624,320,576,320C528,320,480,320,432,320C384,320,336,320,288,320C240,320,192,320,144,320C96,320,48,320,24,320L0,320Z"></path>
    </svg>
