<?xml version="1.0" standalone="no"?>
<!DOCTYPE svg PUBLIC "-//W3C//DTD SVG 20010904//EN"
 "http://www.w3.org/TR/2001/REC-SVG-20010904/DTD/svg10.dtd">
<svg version="1.0" xmlns="http://www.w3.org/2000/svg"
 width="512.000000pt" height="512.000000pt" viewBox="0 0 512.000000 512.000000"
 preserveAspectRatio="xMidYMid meet">
<metadata>
Created by potrace 1.14, written by Peter Selinger 2001-2017
</metadata>
<g transform="translate(0.000000,512.000000) scale(0.100000,-0.100000)"
fill="#000000" stroke="none">
<path d="M1260 4324 c-103 -18 -106 -19 -196 -49 -202 -70 -402 -218 -531
-395 -93 -127 -165 -298 -197 -465 -21 -111 -14 -343 12 -445 l20 -74 -87 -86
c-150 -147 -228 -292 -267 -495 -10 -49 -11 -234 -2 -295 60 -407 416 -731
833 -757 l100 -6 35 -45 c170 -223 439 -378 730 -420 60 -8 241 -8 310 1 289
38 569 211 751 463 44 61 50 63 94 44 51 -23 185 -39 300 -36 276 8 518 133
687 356 l50 65 86 1 c185 1 306 26 464 94 314 135 563 434 637 765 6 28 14 61
17 75 12 54 11 288 -2 360 -56 326 -248 607 -529 776 -62 38 -202 97 -275 117
-49 14 -76 19 -160 32 -41 7 -235 8 -266 1 -16 -3 -47 -8 -69 -11 -22 -2 -90
-21 -152 -41 l-112 -37 -72 77 c-70 75 -195 167 -274 201 -22 9 -49 21 -60 26
-69 30 -188 52 -293 54 -202 4 -381 -47 -534 -152 -26 -18 -51 -33 -55 -33 -5
1 -33 23 -63 51 -206 189 -452 288 -730 293 -70 2 -158 -3 -200 -10z"/>
</g>
</svg>
